<?xml version="1.0" encoding="utf-8"?>
<!-- Generator: Adobe Illustrator 28.0.0, SVG Export Plug-In . SVG Version: 6.00 Build 0)  -->
<svg version="1.1" id="레이어_1" xmlns="http://www.w3.org/2000/svg" xmlns:xlink="http://www.w3.org/1999/xlink" x="0px"
	 y="0px" viewBox="0 0 800 540" style="enable-background:new 0 0 800 540;" xml:space="preserve">
<style type="text/css">
	.st0{fill:#FBD165;stroke:#808080;stroke-width:0.5;stroke-linecap:round;stroke-linejoin:round;}
</style>
<path class="st0" d="M668.6,275.9l0.3,0l1.6-0.6l5.6-3.2l1.6-0.2l0.9,0.5l0.8,1l2.6,4.4l0.4,1.2l0.1,1.3l-0.7,3.7l0.1,1.1l0.6,0.8
	l0.7-0.1l0.9-0.4l1-0.1l0.9,0.4l0.8,0.6l0.7,0.8l0.6,0.9l0.8,0.8l0.9,0.1l2-0.3l2.2,0.4l1,0.5l0.9,0.7l0.8,0.5l1.7,0.2l0.7,0.6
	l1.2,1.9l0.7,0.5l0.4-1.2l-0.1-1.3l-0.2-1.1l0.1-0.8l0.9-0.5l1.1,0.1l0.5,0.7l0.6,2.3l0.4,0.8l0.6,0.6l0.6,0l0.5-1.2l1.1-1.5
	l3.1,2.7l1-0.9l0.2-2.1l-0.4-10.4l0.3-0.8l0.6,0.2l2.2,2.1l2,0.9l1.6-0.3l1.3-1.3l1.5-3.3l0.7-2l0.2-1.2l-0.2-1.1l-1.3-1.7l-0.5-1v0
	l0,0l0.9-2.3l0.6-0.7l1-0.4l1,0.2l0.6,0.8l0.2,1.2l0,1.3l-0.8,3.4l0,0.7l0.4,0.2l0.3-0.5l0.2-0.7l0.2-0.3l0.5,0.2l0.2,1l0.4,0.2
	l0.4-0.3l0-1.3l0.3-0.3l0.4,0.2l0.4,0.3l4.3,6.4l0.7,1.8l0.3,2l-0.1,2.6l0.2,2.5l1.2,0.6l3.6-0.6l1.1,0.9l0.7,1l0.8,0.4l1.4-0.8
	l1-0.9l1.1-0.7l1.1-0.2l1.2,0.7l0.5,1.2l0.2,1.6l0.1,1.7l0.4,3.2v1.2l-0.3,1.1l-0.6,1.4l1.4-0.4l-0.3,1l-1.1,5l-0.3,0.3l-0.2,0.1
	l-0.3,0.1l-0.7,0.1l-2.7,0.1l-0.7,0.1l-0.8-0.1l-6-1.4l-1.3,0.1l-1.1-0.1h-1l-0.5,0.2l-1.9,0.9l-1.5-0.8l-4.7,1.3l-0.6,0.9l-0.6,0.4
	l-1.5,1.4l-0.2,0.3l0,0.4l0.5,0.7l0.7,1.5l-1.3,1.3l-3.8,1.3l-4,2.2l-0.9,0.8l-1.4,2.2l-3,2.8l-1,0.2l-0.7-0.2l-2.1-1.1l-0.9-0.8
	l-0.5-0.2l-0.8-0.2l-0.5-0.2l-0.3-0.2l-1.3-1.4l-0.3-0.2l-1.8-0.2l-0.3-0.3l2.9-4l-5.2,0.3l-1.5-0.2l-0.3-0.3l-0.4-0.3l-0.7-0.3
	l-0.9,0l-2.1,1.9l-0.6,0.1l-1.3-0.1l-0.6,0l-0.8,0.4l-0.5,0.6l-0.4,0.6l-0.5,0.6l-1.2,0.7l0.1-0.5l0.4-2l-1.7-1l-4.2-1l-0.7-0.9
	l-0.1-1l0.4-0.8l0.9-0.1l1.6,1.4l0.9,0.3l0.1-1.1l-0.4-0.5l-8.3-9.4l-1.4-1.3l-0.1-0.2l-0.1-0.2l-0.9-1l0,0l0.3-1.4l-0.1-4.5
	l-0.2-1.3l-0.9-1.6l-0.9-1.2l-0.3-0.5l-0.1-0.4l0-0.4l0.1-0.4l0.9-1.8l0.1-0.4l0.2-0.8l-0.2-0.5l-1.3-0.2l-0.2-0.2l-0.2-0.3l0-0.9
	l-0.1-0.7l0.1-0.4l0.1-0.3l2.2-3l0.4-0.8L668.6,275.9z M672.9,299.3l-0.7,0.2l0.5,1.2l0,0l0.8,0.8l1.3,1.8l0.8,0.7l0.9,0.2l-0.1-1
	l-0.6-1.5l-0.6-1l-1.1-1L672.9,299.3z"/>
</svg>
